<svg xmlns="http://www.w3.org/2000/svg" xmlns:xlink="http://www.w3.org/1999/xlink" version="1.1" x="0px" y="0px" viewBox="0 0 100 125" style="enable-background:new 0 0 100 100;" xml:space="preserve"><path d="M50,15.1c19.3,0,35,15.7,35,35s-15.7,35-35,35s-35-15.7-35-35S30.7,15.1,50,15.1 M50,5.1c-24.9,0-45,20.1-45,45  s20.1,45,45,45s45-20.1,45-45S74.9,5.1,50,5.1L50,5.1z"/><path d="M50,34.6c8.5,0,15.5,7,15.5,15.5s-7,15.5-15.5,15.5s-15.5-7-15.5-15.5S41.5,34.6,50,34.6 M50,24.6  C36,24.6,24.5,36,24.5,50.1S36,75.6,50,75.6s25.5-11.4,25.5-25.5S64.1,24.6,50,24.6L50,24.6z"/><circle cx="50" cy="50.1" r="6.5"/></svg>